<svg width="176" height="175" viewBox="0 0 176 175" fill="none" xmlns="http://www.w3.org/2000/svg">
<path d="M176 73.0357L152.711 56.0714L155.2 27.3214L126.4 25.7143L113.067 0L88 14.2857L62.9333 0L49.6 25.5357L20.8 27.1429L23.2889 55.8929L0 73.0357L17.6 95.8929L7.11111 122.857L34.3111 132.5L40 160.893L68.0889 154.286L88 175L108.089 154.286L136 160.893L141.689 132.5L168.889 122.857L158.4 95.8929L176 73.0357ZM97.7778 126.607H78.2222V111.607H97.7778V126.607ZM97.7778 99.2857H78.2222V37.5H97.7778V99.2857Z" fill="#FF5D5A"/>
</svg>
