<svg width="537" height="55" viewBox="0 0 537 55" fill="none" xmlns="http://www.w3.org/2000/svg">
<path d="M92.6089 28.1802H85.7622V25.3119H92.7345V18.5286H77.5126V44.3639H85.7622V34.5866H92.6089V28.1802Z" fill="#101777"/>
<path fill-rule="evenodd" clip-rule="evenodd" d="M120.373 26.1284C121.088 27.7948 121.452 29.5909 121.441 31.4043C121.434 33.2448 121.042 35.0635 120.289 36.743C118.912 39.9985 116.321 42.5895 113.065 43.966C109.714 45.3572 105.947 45.3572 102.596 43.966C99.3446 42.537 96.7817 39.8917 95.4564 36.5965C94.0652 33.2458 94.0652 29.4791 95.4564 26.1284C96.8331 22.8729 99.4243 20.282 102.68 18.9054C106.031 17.5143 109.798 17.5143 113.149 18.9054C116.405 20.282 118.996 22.8729 120.373 26.1284ZM107.873 36.8059C110.053 36.8045 112.022 35.503 112.877 33.4979H112.919C113.201 32.8355 113.35 32.1242 113.358 31.4043C113.333 29.2297 112.016 27.2787 110.008 26.4424C109.346 26.1604 108.635 26.011 107.915 26.0028C105.735 26.0041 103.766 27.3056 102.91 29.3107C102.628 29.9731 102.479 30.6844 102.471 31.4043C102.489 33.5689 103.788 35.5171 105.779 36.3662C106.441 36.6482 107.153 36.7976 107.873 36.8059Z" fill="#101777"/>
<path fill-rule="evenodd" clip-rule="evenodd" d="M149.414 26.275C150.805 29.6257 150.805 33.3924 149.414 36.7431H149.477C148.785 38.3501 147.798 39.813 146.566 41.0559C145.283 42.3063 143.768 43.2948 142.106 43.9661C138.755 45.3572 134.988 45.3572 131.637 43.9661C128.413 42.5717 125.854 39.983 124.498 36.7431C123.106 33.3924 123.106 29.6257 124.498 26.275C125.874 23.0195 128.465 20.4285 131.721 19.052C135.072 17.6609 138.839 17.6609 142.19 19.052C145.446 20.4285 148.037 23.0195 149.414 26.275ZM136.914 36.8059C139.094 36.8046 141.063 35.503 141.918 33.498H141.939C142.235 32.8401 142.385 32.1258 142.379 31.4043C142.35 29.2247 141.024 27.2723 139.008 26.4425C138.345 26.1604 137.634 26.0111 136.914 26.0028C134.734 26.0041 132.765 27.3057 131.91 29.3107C131.628 29.9731 131.478 30.6844 131.47 31.4043C131.495 33.579 132.812 35.5299 134.82 36.3662C135.482 36.6482 136.194 36.7976 136.914 36.8059Z" fill="#101777"/>
<path fill-rule="evenodd" clip-rule="evenodd" d="M174.037 25.8144C174.753 27.5893 175.102 29.4909 175.063 31.4043C175.107 33.3318 174.758 35.2482 174.037 37.0362C173.392 38.6003 172.37 39.9811 171.064 41.0559C169.646 42.2024 168.006 43.0435 166.248 43.5264C164.135 44.1131 161.95 44.3951 159.757 44.3638H152.596V18.5495H159.757C161.948 18.5262 164.131 18.8009 166.248 19.366C168.008 19.8223 169.65 20.6504 171.064 21.7946C172.365 22.8747 173.385 24.254 174.037 25.8144ZM160.909 36.9734C162.527 37.0688 164.125 36.5782 165.41 35.5916C166.542 34.5048 167.126 32.968 167.002 31.4043C167.129 29.8402 166.544 28.3022 165.41 27.2171C164.12 26.2437 162.522 25.7679 160.909 25.8772V36.9734Z" fill="#101777"/>
<path d="M194.724 35.8637C194.21 36.1601 193.661 36.3921 193.09 36.5546C192.373 36.7794 191.623 36.8855 190.871 36.8687C190.089 36.871 189.314 36.7217 188.589 36.429C187.911 36.1704 187.292 35.7789 186.767 35.2775C186.247 34.7961 185.834 34.2113 185.553 33.5608C185.268 32.8994 185.118 32.1874 185.113 31.4671C185.101 29.2671 186.415 27.2761 188.442 26.4215C189.145 26.1258 189.9 25.9762 190.662 25.9819C191.369 25.9638 192.076 26.0556 192.755 26.254C193.342 26.4425 193.886 26.6518 194.326 26.8402C194.766 27.0287 195.268 27.4265 195.666 27.7196L199.728 20.5594C198.955 20.0251 198.127 19.5758 197.257 19.2195C195.074 18.2836 192.723 17.8061 190.348 17.8167C188.555 17.8412 186.782 18.1888 185.113 18.8426C183.5 19.4481 182.025 20.374 180.779 21.5643C179.532 22.7505 178.536 24.1742 177.848 25.7516C177.088 27.538 176.71 29.4634 176.738 31.4043C176.716 33.296 177.065 35.1736 177.764 36.9315C178.433 38.5142 179.424 39.9402 180.674 41.1187C181.944 42.3506 183.446 43.3184 185.092 43.9661C186.871 44.6415 188.759 44.9822 190.662 44.971C192.031 44.9892 193.397 44.8273 194.724 44.4895C195.736 44.2215 196.729 43.8858 197.697 43.4845C198.583 43.0929 199.414 42.5861 200.168 41.9771L196.106 34.8169C195.758 35.246 195.322 35.5958 194.828 35.8428" fill="#101777"/>
<path d="M209.799 34.796H214.384V44.3639H222.676V18.5286H214.384V27.3008H209.799V18.5286H201.549V44.3639H209.799V34.796Z" fill="#101777"/>
<path d="M19.9958 47.3996C19.2218 46.8067 18.2322 46.5707 17.2739 46.7506C15.7786 46.9668 14.2608 46.5495 13.0863 45.5991C10.9925 43.9661 10.2178 41.4118 11.3694 39.9044C12.521 38.397 15.1801 38.4389 17.3158 40.051C18.5729 40.9332 19.3892 42.3139 19.5561 43.8405C19.6406 44.8185 20.1446 45.7119 20.938 46.29L28.7689 52.3406V51.9009C28.6153 48.8556 28.095 45.84 27.2195 42.9193C24.9163 35.9894 20.5402 30.9437 12.9188 30.1063C8.62314 29.8565 4.31661 29.8565 0.0209656 30.1063C0.0209656 30.4203 0.523478 32.1999 0.670044 32.8908C1.42381 35.9894 1.92633 39.1717 2.76385 42.1656C6.11393 52.9686 18.5721 56.3394 27.8895 53.7852L19.9958 47.3996Z" fill="#101777"/>
<path fill-rule="evenodd" clip-rule="evenodd" d="M261.851 34.126C261.352 34.7817 260.76 35.3601 260.092 35.8428L264.95 44.3429H255.255L251.382 37.8108V44.322H243.132V18.5285H252.031C253.584 18.5124 255.129 18.7312 256.616 19.1776C257.953 19.5828 259.197 20.2441 260.281 21.1246C261.31 21.9844 262.133 23.0649 262.688 24.286C263.3 25.6399 263.601 27.1136 263.568 28.5989C263.609 29.7181 263.431 30.8347 263.044 31.8858C262.749 32.683 262.348 33.4365 261.851 34.126ZM251.78 31.2368C252.655 31.2629 253.52 31.0376 254.271 30.5878L254.188 30.4831C254.861 30.0032 255.247 29.2158 255.214 28.3895C255.296 27.519 254.904 26.6714 254.188 26.1703C253.436 25.7204 252.572 25.4952 251.696 25.5212H251.256V31.2368H251.78Z" fill="#101777"/>
<path d="M266.185 18.5286H274.937V44.3429H266.185V18.5286Z" fill="#101777"/>
<path d="M60.0712 0C54.5385 1.69316 49.1534 3.83579 43.9699 6.40648C32.433 13.3154 27.2194 23.5532 28.6851 37.1199C29.3444 42.5691 30.9306 47.8655 33.3752 52.7802L39.3426 40.0091C40.4313 37.6014 38.7772 35.8219 38.5888 34.8588C38.4841 34.2539 38.572 33.6315 38.84 33.0792L43.9699 22.0249C44.1981 21.5249 44.7858 21.301 45.289 21.5224C45.789 21.7507 46.0129 22.3383 45.7915 22.8414L42.1064 30.9647C41.885 31.4677 42.1088 32.0554 42.6089 32.2836C43.112 32.505 43.6997 32.2812 43.928 31.7812L47.6131 23.6579C47.8414 23.1579 48.429 22.934 48.9322 23.1555C49.4322 23.3837 49.6561 23.9713 49.4347 24.4744L45.7496 32.5977C45.5282 33.1008 45.752 33.6884 46.2521 33.9167C46.7552 34.1381 47.3429 33.9142 47.5712 33.4142L51.2563 25.2909C51.4846 24.7909 52.0723 24.5671 52.5754 24.7885C53.0755 25.0167 53.2993 25.6044 53.0779 26.1075L48.0528 37.1408C47.8048 37.7012 47.3874 38.1698 46.8593 38.4808C46.0218 39.0042 43.572 38.9204 42.4833 41.3281L36.6416 54.2667C43.0939 52.5658 49.092 49.4634 54.2086 45.1803C61.2428 39.713 65.2231 31.2002 64.9079 22.2971C64.9079 14.6553 62.2697 7.34861 60.0712 0Z" fill="#101777"/>
<path d="M239.489 11.0334H233.794L230.57 17.0211H234.862L239.489 11.0334Z" fill="#101777"/>
<path d="M233.48 34.5866H240.348V28.1802H233.48V25.3119H240.452V18.5286H225.272V44.3639H240.725V37.5805H233.48V34.5866Z" fill="#101777"/>
<rect x="296" y="19.9754" width="239" height="34" transform="rotate(-3.59243 296 19.9754)" fill="#EBA900"/>
<path d="M319.724 28.0206L320.25 36.4021C320.389 38.6207 319.383 39.8832 317.354 40.0106C315.306 40.1392 314.15 39.0124 314.011 36.7938L313.485 28.4123L310.565 28.5956L311.093 37.015C311.211 38.8923 311.835 40.3381 312.981 41.3132C314.128 42.2883 315.64 42.7264 317.517 42.6085C319.395 42.4906 320.822 41.868 321.837 40.7572C322.852 39.6464 323.29 38.134 323.173 36.2567L322.644 27.8373L319.724 28.0206Z" fill="white"/>
<path d="M328.339 27.4797L325.4 27.6642L326.291 41.8483L335.412 41.2757L335.249 38.6778L329.067 39.0659L328.339 27.4797Z" fill="white"/>
<path d="M344.925 26.4384L332.505 27.2182L332.667 29.7971L337.426 29.4983L338.155 41.1034L341.075 40.9201L340.346 29.3149L345.087 29.0173L344.925 26.4384Z" fill="white"/>
<path d="M349.654 26.1415L346.715 26.3261L347.605 40.5101L350.544 40.3256L349.654 26.1415Z" fill="white"/>
<path d="M368.098 24.9835L365.52 25.1454L360.936 35.2185L355.09 25.8002L352.492 25.9633L353.383 40.1474L356.322 39.9629L355.841 32.3019L360.238 39.5647L362.172 39.4433L365.607 31.6888L366.088 39.3498L368.989 39.1676L368.098 24.9835Z" fill="white"/>
<path d="M378.237 24.347L375.771 24.5018L370.575 39.068L373.78 38.8668L374.784 36.0624L380.681 35.6922L382.009 38.3502L385.233 38.1478L378.237 24.347ZM377.307 28.9553L379.507 33.3671L375.677 33.6076L377.307 28.9553Z" fill="white"/>
<path d="M394.536 23.3238L382.115 24.1035L382.277 26.6825L387.037 26.3836L387.765 37.9888L390.685 37.8055L389.957 26.2003L394.697 25.9027L394.536 23.3238Z" fill="white"/>
<path d="M405.427 22.64L396.325 23.2114L397.215 37.3955L406.336 36.8229L406.173 34.225L399.991 34.6131L399.777 31.1998L405.125 30.8641L404.966 28.342L399.619 28.6778L399.426 25.6058L405.589 25.2189L405.427 22.64Z" fill="white"/>
<path d="M412.9 36.4108L419.253 36.0119C422.04 35.8369 423.749 34.2447 423.582 31.59C423.476 29.9023 422.587 28.7778 421.402 28.3953C422.292 27.7112 422.688 26.7535 422.611 25.5209C422.449 22.942 420.619 21.6862 417.945 21.8541L412.01 22.2267L412.9 36.4108ZM417.766 24.4544C418.884 24.3842 419.582 24.8735 419.647 25.9164C419.711 26.9404 419.194 27.4869 418.113 27.5548L415.287 27.7322L415.092 24.6223L417.766 24.4544ZM418.572 30.0198C419.71 29.9484 420.504 30.4697 420.577 31.6264C420.647 32.7452 420.038 33.3545 418.748 33.4355L415.657 33.6295L415.443 30.2163L418.572 30.0198Z" fill="white"/>
<path d="M428.338 21.2016L425.398 21.3861L426.289 35.5702L435.41 34.9976L435.247 32.3997L429.065 32.7878L428.338 21.2016Z" fill="white"/>
<path d="M439.541 20.4982L436.602 20.6827L437.493 34.8668L440.432 34.6823L439.541 20.4982Z" fill="white"/>
<path d="M454.023 19.589L451.103 19.7724L451.655 28.571L444.864 20.164L442.38 20.32L443.27 34.5041L446.209 34.3196L445.658 25.5398L452.429 33.9291L454.913 33.7731L454.023 19.589Z" fill="white"/>
<path d="M457.751 33.5949L463.573 33.2294C465.64 33.0997 467.307 32.3668 468.536 31.0141C469.765 29.6615 470.319 27.8752 470.182 25.6945C470.045 23.5138 469.273 21.8299 467.885 20.6415C466.497 19.4532 464.768 18.9144 462.701 19.0442L456.861 19.4108L457.751 33.5949ZM462.878 21.546C465.438 21.3853 467.094 22.8995 467.281 25.8767C467.467 28.8538 465.976 30.5656 463.454 30.724L460.515 30.9085L459.938 21.7306L462.878 21.546Z" fill="white"/>
<path d="M487.719 17.4735L475.299 18.2533L475.461 20.8322L480.22 20.5334L480.949 32.1385L483.869 31.9552L483.141 20.35L487.881 20.0524L487.719 17.4735Z" fill="white"/>
<path d="M498.611 16.7897L489.509 17.3612L490.399 31.5452L499.52 30.9726L499.357 28.3747L493.175 28.7628L492.961 25.3495L498.308 25.0138L498.15 22.4918L492.803 22.8275L492.61 19.7556L498.773 19.3686L498.611 16.7897Z" fill="white"/>
<path d="M505.7 16.1352C504.088 16.2364 502.863 16.7321 502.043 17.6213C501.222 18.4914 500.851 19.5618 500.929 20.7943C501.011 22.1028 501.507 23.0235 502.513 23.5886C503.025 23.861 503.515 24.0778 503.999 24.2187C504.484 24.3596 505.102 24.4921 505.872 24.6341C508.01 25.0329 508.852 25.3989 508.915 26.4039C508.983 27.4848 508.278 28.0812 506.78 28.1752C505.244 28.2717 504.07 27.4696 503.932 26.1837L500.965 26.5223C501.074 27.9623 501.675 29.0478 502.768 29.7787C503.861 30.5097 505.252 30.8222 506.939 30.7162C508.456 30.621 509.685 30.1821 510.606 29.3819C511.546 28.5804 511.971 27.4686 511.881 26.0464C511.808 24.8707 511.353 24.0044 510.52 23.4666C509.706 22.9276 508.46 22.4918 506.803 22.177C505.726 21.9971 504.99 21.7959 504.577 21.5933C504.163 21.3718 503.951 21.0234 503.919 20.5114C503.853 19.4685 504.608 18.7548 505.917 18.6726C507.263 18.5881 508.145 19.2942 508.24 20.5066L511.227 20.1668C511.104 18.8229 510.545 17.7919 509.529 17.0752C508.532 16.3572 507.255 16.0376 505.7 16.1352Z" fill="white"/>
<path d="M524.848 15.1425L512.428 15.9222L512.59 18.5012L517.349 18.2024L518.078 29.8075L520.998 29.6242L520.27 18.019L525.01 17.7214L524.848 15.1425Z" fill="white"/>
</svg>
