<svg width="171" height="184" viewBox="0 0 171 184" fill="none" xmlns="http://www.w3.org/2000/svg">
<path d="M170.578 155.438H0.672119V183.7H170.578V155.438Z" fill="#EBA900"/>
<path d="M156.419 113.046C156.419 78.8638 132.094 50.3621 99.7838 43.8195V28.2615H113.943V14.1308C113.943 6.33059 107.599 0 99.7838 0H71.4662C63.6505 0 57.3074 6.33059 57.3074 14.1308V28.2615H71.4662V43.8195C39.1558 50.3621 14.8309 78.8638 14.8309 113.046V141.308H156.419V113.046ZM85.625 70.6539C70.0078 70.6539 57.3074 83.3292 57.3074 98.9154C57.3074 102.815 54.1358 105.981 50.228 105.981C46.3201 105.981 43.1485 102.815 43.1485 98.9154C43.1485 75.5431 62.2063 56.5231 85.625 56.5231C89.5328 56.5231 92.7044 59.6884 92.7044 63.5885C92.7044 67.4886 89.5328 70.6539 85.625 70.6539Z" fill="#EBA900"/>
</svg>
